<?xml version="1.0" standalone="no"?><!DOCTYPE svg PUBLIC "-//W3C//DTD SVG 1.1//EN" "http://www.w3.org/Graphics/SVG/1.1/DTD/svg11.dtd"><svg t="1736919738090" class="icon" viewBox="0 0 1024 1024" version="1.1" xmlns="http://www.w3.org/2000/svg" p-id="4257" xmlns:xlink="http://www.w3.org/1999/xlink" width="100%" height="100%"><path d="M79.295 750.060l1.447 1.447c24.777 24.776 64.948 24.776 89.725 0l387.843-387.842c24.777-24.776 24.777-64.948 0-89.725l-1.447-1.447c-24.776-24.776-64.948-24.776-89.725 0l-387.842 387.842c-24.777 24.776-24.777 64.946-0.001 89.725zM943.257 751.507l1.447-1.447c24.777-24.776 24.777-64.948 0-89.725l-387.842-387.843c-24.776-24.776-64.948-24.776-89.725 0l-1.447 1.447c-24.777 24.776-24.777 64.948 0 89.725l387.842 387.842c24.776 24.778 64.947 24.778 89.725 0.001z" fill="#333" p-id="4258"></path></svg>